<?xml version="1.0" encoding="UTF-8"?>
<svg id="Calque_2" data-name="Calque 2" xmlns="http://www.w3.org/2000/svg" viewBox="0 0 19.35 25.51">
  <g id="Calque_1-2" data-name="Calque 1">
    <polygon points="3.87 5.04 9.5 18.14 1.78 18.14 0 22.11 11.22 22.11 12.65 25.51 17.59 25.51 6.13 0 3.87 5.04" style="fill: #1c1e21;"/>
    <rect x="14.84" y="3.47" width="2.28" height=".32" style="fill: #1c1e21;"/>
    <polygon points="14.52 4.12 14.52 4.45 15.82 4.45 15.82 4.77 16.14 4.77 16.14 4.45 17.45 4.45 17.45 4.12 14.52 4.12" style="fill: #1c1e21;"/>
    <rect x="15.82" y="1.52" width=".33" height=".33" style="fill: #1c1e21;"/>
    <rect x="15.17" y="2.82" width="1.63" height=".33" style="fill: #1c1e21;"/>
    <rect x="15.49" y="2.17" width=".98" height=".33" style="fill: #1c1e21;"/>
    <path d="M15.98,6.02c-1.46,0-2.65-1.19-2.65-2.65,0-1.46,1.19-2.65,2.65-2.65,1.46,0,2.64,1.18,2.65,2.65,0,1.46-1.19,2.64-2.65,2.65h0ZM15.98,0c-1.86,0-3.37,1.51-3.37,3.37,0,1.86,1.51,3.37,3.37,3.37,1.86,0,3.37-1.51,3.37-3.37C19.35,1.51,17.84,0,15.98,0" style="fill: #1c1e21;"/>
  </g>
</svg>